G04*
G04 #@! TF.GenerationSoftware,Altium Limited,Altium Designer,21.6.1 (37)*
G04*
G04 Layer_Physical_Order=2*
G04 Layer_Color=16711680*
%FSLAX44Y44*%
%MOMM*%
G71*
G04*
G04 #@! TF.SameCoordinates,40B2A5F8-733E-42E0-8A32-B16F46F25534*
G04*
G04*
G04 #@! TF.FilePolarity,Positive*
G04*
G01*
G75*
%ADD15R,1.1000X0.2000*%
%ADD16R,0.7600X0.7200*%
%ADD17R,0.5500X0.6000*%
%ADD24R,2.0000X2.3000*%
%ADD25C,0.2540*%
%ADD33C,0.5000*%
%ADD35C,0.2540*%
%ADD36C,0.5080*%
%ADD37C,0.3810*%
%ADD38C,1.7000*%
%ADD39C,1.5000*%
%ADD40R,1.5000X0.5000*%
%ADD41R,0.8121X0.7581*%
G04:AMPARAMS|DCode=42|XSize=0.65mm|YSize=1.2mm|CornerRadius=0.0488mm|HoleSize=0mm|Usage=FLASHONLY|Rotation=270.000|XOffset=0mm|YOffset=0mm|HoleType=Round|Shape=RoundedRectangle|*
%AMROUNDEDRECTD42*
21,1,0.6500,1.1025,0,0,270.0*
21,1,0.5525,1.2000,0,0,270.0*
1,1,0.0975,-0.5513,-0.2763*
1,1,0.0975,-0.5513,0.2763*
1,1,0.0975,0.5513,0.2763*
1,1,0.0975,0.5513,-0.2763*
%
%ADD42ROUNDEDRECTD42*%
%ADD43R,1.5000X0.6000*%
%ADD44R,0.6000X0.5500*%
%ADD45R,1.2500X1.5500*%
G36*
X74163Y92825D02*
X74335Y91727D01*
X63988Y81380D01*
X63575Y80877D01*
X63269Y80304D01*
X63080Y79681D01*
X63016Y79034D01*
Y61702D01*
X63080Y61055D01*
X63269Y60432D01*
X63575Y59859D01*
X63988Y59356D01*
X65165Y58178D01*
X65089Y57668D01*
X63946Y55332D01*
X63054D01*
X62178Y55158D01*
X61353Y54816D01*
X60611Y54320D01*
X59980Y53689D01*
X59484Y52947D01*
X59142Y52122D01*
X58968Y51246D01*
Y50354D01*
X59142Y49478D01*
X59484Y48653D01*
X59980Y47911D01*
X60611Y47280D01*
X61353Y46784D01*
X62178Y46442D01*
X63054Y46268D01*
X63946D01*
X64822Y46442D01*
X65647Y46784D01*
X66389Y47280D01*
X67020Y47911D01*
X67035Y47933D01*
X73818D01*
X74187Y47686D01*
X75012Y47344D01*
X75888Y47170D01*
X76780D01*
X77656Y47344D01*
X78457Y47676D01*
X87564D01*
Y46530D01*
X103164D01*
X103326Y46514D01*
X103488Y46530D01*
X106628D01*
Y49669D01*
X106644Y49832D01*
X106628Y49995D01*
Y56594D01*
X87564D01*
Y55588D01*
X78676D01*
X78481Y55718D01*
X77656Y56060D01*
X77036Y56183D01*
X76494Y57406D01*
X76993Y59928D01*
X77736Y60424D01*
X78097Y60785D01*
X87564D01*
Y59230D01*
X106628D01*
Y69294D01*
X87564D01*
Y67421D01*
X77779D01*
X77736Y67465D01*
X76993Y67961D01*
X76169Y68302D01*
X75293Y68477D01*
X74400D01*
X73525Y68302D01*
X72700Y67961D01*
X72192Y67621D01*
X71281Y67842D01*
X69652Y68751D01*
Y71330D01*
X71281Y72239D01*
X72192Y72460D01*
X72700Y72120D01*
X73525Y71779D01*
X74400Y71604D01*
X75293D01*
X76169Y71779D01*
X76993Y72120D01*
X77736Y72616D01*
X78351Y73231D01*
X87564D01*
Y71930D01*
X106628D01*
Y76885D01*
X108676Y77887D01*
X109168Y77967D01*
X110136Y77224D01*
X111332Y76534D01*
X112607Y76006D01*
X113941Y75648D01*
X115310Y75468D01*
X116690D01*
X118059Y75648D01*
X119393Y76006D01*
X120668Y76534D01*
X121864Y77224D01*
X122727Y77887D01*
X123598Y77709D01*
X125267Y76781D01*
Y70358D01*
X124643D01*
X124005Y70231D01*
X123404Y69982D01*
X122863Y69621D01*
X122403Y69161D01*
X122042Y68620D01*
X121793Y68019D01*
X121666Y67381D01*
Y66731D01*
X121793Y66093D01*
X122042Y65492D01*
X122403Y64951D01*
X122863Y64491D01*
X123404Y64130D01*
X124005Y63881D01*
X124643Y63754D01*
X125267D01*
Y21753D01*
X124464Y21192D01*
X122727Y20753D01*
X122298Y21182D01*
X121307Y21943D01*
X120225Y22567D01*
X119071Y23045D01*
X117864Y23369D01*
X116625Y23532D01*
X115375D01*
X114136Y23369D01*
X112929Y23045D01*
X111775Y22567D01*
X110693Y21943D01*
X110339Y21671D01*
X107831Y22613D01*
X107454Y24173D01*
X108965Y26372D01*
X113708D01*
Y37636D01*
X105577D01*
X105179Y38121D01*
Y39014D01*
X105005Y39889D01*
X104663Y40714D01*
X104167Y41456D01*
X103536Y42087D01*
X102794Y42583D01*
X101969Y42925D01*
X101093Y43099D01*
X100201D01*
X99325Y42925D01*
X98500Y42583D01*
X97758Y42087D01*
X97127Y41456D01*
X96631Y40714D01*
X96289Y39889D01*
X96115Y39014D01*
Y38728D01*
X94035Y36648D01*
X83406D01*
X82748Y36561D01*
X82135Y36307D01*
X81609Y35903D01*
X81205Y35377D01*
X80951Y34764D01*
X80864Y34107D01*
Y28582D01*
X80951Y27924D01*
X81205Y27311D01*
X81609Y26785D01*
X82135Y26381D01*
X82748Y26127D01*
X83406Y26040D01*
X93187D01*
X94784Y24493D01*
X94999Y23553D01*
Y19563D01*
X94489Y19513D01*
X93866Y19324D01*
X93293Y19017D01*
X92790Y18605D01*
X92790Y18605D01*
X91833Y17648D01*
X83406D01*
X82748Y17561D01*
X82135Y17307D01*
X81609Y16903D01*
X81205Y16377D01*
X80951Y15764D01*
X80864Y15107D01*
Y9582D01*
X79414Y7921D01*
X78786Y7512D01*
X69550D01*
X68922Y7921D01*
X67472Y9582D01*
Y15107D01*
X67385Y15764D01*
X67131Y16377D01*
X66727Y16903D01*
X66201Y17307D01*
X65588Y17561D01*
X64931Y17648D01*
X53906D01*
X53248Y17561D01*
X52635Y17307D01*
X52600Y17280D01*
X50060Y18005D01*
Y25282D01*
X50889Y25890D01*
X52600Y26407D01*
X52635Y26381D01*
X53248Y26127D01*
X53906Y26040D01*
X64931D01*
X65588Y26127D01*
X66201Y26381D01*
X66727Y26785D01*
X67131Y27311D01*
X67385Y27924D01*
X67472Y28582D01*
Y34107D01*
X67385Y34764D01*
X67131Y35377D01*
X66727Y35903D01*
X66201Y36307D01*
X65588Y36561D01*
X64931Y36648D01*
X53906D01*
X51883Y37950D01*
X51446Y38394D01*
Y40342D01*
X52614Y42398D01*
X52807Y42501D01*
X53310Y42914D01*
X55244Y44848D01*
X55244Y44848D01*
X55657Y45351D01*
X55963Y45925D01*
X56152Y46547D01*
X56216Y47194D01*
X56216Y47194D01*
Y57960D01*
X56216Y57960D01*
X56152Y58607D01*
X55963Y59230D01*
X55657Y59803D01*
X55244Y60306D01*
X55244Y60306D01*
X51628Y63922D01*
Y69294D01*
X32564D01*
Y69294D01*
X30182Y69675D01*
Y71902D01*
X20618D01*
Y68098D01*
X19603Y67463D01*
X18078Y67136D01*
X17832Y67382D01*
X17090Y67878D01*
X16265Y68220D01*
X15389Y68394D01*
X14497D01*
X14484Y68404D01*
Y77172D01*
X12192D01*
Y79248D01*
X7457D01*
X5667Y81049D01*
X5698Y86267D01*
X25000D01*
X25897Y86338D01*
X26772Y86548D01*
X27603Y86892D01*
X28370Y87362D01*
X29054Y87946D01*
X29638Y88630D01*
X30024Y89261D01*
X30288Y89327D01*
X32564Y88452D01*
Y84630D01*
X51628D01*
Y94267D01*
X73365D01*
X74163Y92825D01*
D02*
G37*
D15*
X6952Y79500D02*
D03*
Y74140D02*
D03*
Y68780D02*
D03*
Y63420D02*
D03*
Y58060D02*
D03*
Y20500D02*
D03*
Y25860D02*
D03*
Y31220D02*
D03*
Y36580D02*
D03*
Y41940D02*
D03*
Y52700D02*
D03*
Y47300D02*
D03*
D16*
X107876Y32004D02*
D03*
X117676D02*
D03*
D17*
X25400Y75370D02*
D03*
Y66870D02*
D03*
D24*
X120000Y50000D02*
D03*
D25*
X124968Y67056D02*
D03*
X29464Y96012D02*
D03*
X42672Y4064D02*
D03*
D33*
X108712Y3135D02*
D03*
X49784Y4064D02*
D03*
X18796Y28956D02*
D03*
X14732Y36576D02*
D03*
X100647Y38567D02*
D03*
X52560Y23746D02*
D03*
X74676Y38100D02*
D03*
X63500Y50800D02*
D03*
X76334Y51702D02*
D03*
X74847Y63945D02*
D03*
Y76136D02*
D03*
X56388Y66548D02*
D03*
X26416Y80772D02*
D03*
X14943Y63862D02*
D03*
D35*
X122835Y5635D02*
G03*
X123100Y22141I-6835J8365D01*
G01*
X123042Y22199D02*
G03*
X123043Y22198I1796J1796D01*
G01*
X122835Y5635D02*
G03*
X122298Y5022I1619J-1957D01*
G01*
X122298Y22943D02*
Y27582D01*
X120411Y3135D02*
X121805Y4529D01*
X122298Y5022D01*
X118538Y31342D02*
X122298Y27582D01*
X123043Y22198D02*
X123100Y22141D01*
X122298Y22943D02*
X123042Y22199D01*
X117876Y32004D02*
X118538Y31342D01*
X119200Y32004D02*
Y49200D01*
X108712Y3135D02*
X120411D01*
X117676Y32004D02*
X117876D01*
X108241Y3606D02*
X108712Y3135D01*
X101092Y5922D02*
X103408Y3606D01*
X108241D01*
X76962Y89662D02*
X97096D01*
X66334Y61702D02*
Y79034D01*
X76962Y89662D01*
X66334Y61702D02*
X76334Y51702D01*
X88918Y31344D02*
X90898Y33324D01*
X95404D01*
X100647Y38567D01*
X93648Y14771D02*
X95136Y16258D01*
X98889D01*
X91668Y12344D02*
X93648Y14324D01*
Y14771D01*
X88918Y12344D02*
X91668D01*
X98889Y16258D02*
X100333Y17703D01*
X88918Y12344D02*
X91668D01*
X7026Y36506D02*
X16038D01*
X18796Y28290D02*
X20298Y26788D01*
Y25276D02*
Y26788D01*
X18796Y28290D02*
Y28956D01*
X20298Y25276D02*
X25074Y20500D01*
X6952D02*
X25400D01*
X22006Y14000D02*
X26040Y18034D01*
X25400Y18918D02*
Y20500D01*
X25278Y18796D02*
X25400Y18918D01*
X107676Y32004D02*
X107876D01*
X101092Y25420D02*
X107676Y32004D01*
X101092Y18462D02*
Y25420D01*
X62717Y23275D02*
X64148Y21844D01*
X53031Y23275D02*
X62717D01*
X52560Y23746D02*
X53031Y23275D01*
X74676Y38100D02*
X77076D01*
X67264Y38831D02*
X74676D01*
X71120Y21844D02*
X76200Y26924D01*
X64148Y21844D02*
X71120D01*
X46596Y76962D02*
X56859Y66699D01*
X25654Y75736D02*
Y80010D01*
X26880Y76962D02*
X42096D01*
X46596D01*
X46414Y35560D02*
X46664D01*
X49204Y33020D01*
X60072D01*
X61748Y31344D01*
X115260Y45260D02*
X119200Y49200D01*
X120000Y50000D01*
X84376Y45260D02*
X115260D01*
X82510Y43394D02*
X84376Y45260D01*
X82370Y43394D02*
X82510D01*
X77076Y38100D02*
X82370Y43394D01*
X21520Y79500D02*
X25400Y75620D01*
X76200Y26924D02*
Y38831D01*
X63951Y51251D02*
X75883D01*
X63500Y50800D02*
X63951Y51251D01*
X75883D02*
X76137Y51505D01*
X57698Y48397D02*
Y65238D01*
Y48397D02*
X67264Y38831D01*
X56388Y66548D02*
X57698Y65238D01*
X50964Y45260D02*
X52898Y47194D01*
X16280Y45260D02*
X50964D01*
X14510Y47030D02*
X16280Y45260D01*
X52898Y47194D02*
Y57960D01*
X46596Y64262D02*
X52898Y57960D01*
X42096Y64262D02*
X46596D01*
X75005Y64103D02*
X96937D01*
X96683Y76549D02*
X97096Y76962D01*
X74847Y76136D02*
X75259Y76549D01*
X96937Y64103D02*
X97096Y64262D01*
X74847Y63945D02*
X75005Y64103D01*
X75259Y76549D02*
X96683D01*
X101596Y51562D02*
X103326Y49832D01*
X97096Y51562D02*
X101596D01*
X25400Y75370D02*
Y75620D01*
X25654Y80010D02*
X26416Y80772D01*
X6952Y58060D02*
X19452D01*
X23920Y62528D01*
X25654Y75736D02*
X26880Y76962D01*
X8682Y79500D02*
X21520D01*
X6952D02*
X8682D01*
X8952Y79770D01*
Y86000D01*
Y14000D02*
X22006D01*
X20679Y51562D02*
X42096D01*
X19541Y52700D02*
X20679Y51562D01*
X11182Y47030D02*
X14510D01*
X23920Y65390D02*
X25400Y66870D01*
X23920Y62528D02*
Y65390D01*
X7222Y63690D02*
X14922D01*
X6952Y52700D02*
X19541D01*
D36*
X14732Y36576D02*
X36898D01*
X37914Y35560D01*
X48464Y12344D02*
X59418D01*
X41778Y17296D02*
X45488Y13586D01*
X47222D02*
X48464Y12344D01*
X41778Y17296D02*
Y18796D01*
X45488Y13586D02*
X47222D01*
X39592Y19482D02*
Y29448D01*
X38124Y35560D02*
X38334Y35350D01*
Y30706D02*
X39592Y29448D01*
X37914Y35560D02*
X38124D01*
X38334Y30706D02*
Y35350D01*
D37*
X49784Y3556D02*
X88896D01*
X76334Y51632D02*
X93910D01*
X88896Y3556D02*
X91128Y5788D01*
Y10999D01*
D38*
X116000Y86000D02*
D03*
D39*
Y14000D02*
D03*
D40*
X8952D02*
D03*
Y86000D02*
D03*
D41*
X101092Y5922D02*
D03*
Y18462D02*
D03*
D42*
X88918Y12344D02*
D03*
Y31344D02*
D03*
X59418D02*
D03*
Y21844D02*
D03*
Y12344D02*
D03*
D43*
X97096Y89662D02*
D03*
Y76962D02*
D03*
Y64262D02*
D03*
Y51562D02*
D03*
X42096Y89662D02*
D03*
Y76962D02*
D03*
Y64262D02*
D03*
Y51562D02*
D03*
D44*
X46414Y35560D02*
D03*
X37914D02*
D03*
D45*
X25278Y18796D02*
D03*
X41778D02*
D03*
M02*
