G04*
G04 #@! TF.GenerationSoftware,Altium Limited,Altium Designer,21.6.1 (37)*
G04*
G04 Layer_Color=16711935*
%FSLAX44Y44*%
%MOMM*%
G71*
G04*
G04 #@! TF.SameCoordinates,40B2A5F8-733E-42E0-8A32-B16F46F25534*
G04*
G04*
G04 #@! TF.FilePolarity,Negative*
G04*
G01*
G75*
%ADD25C,0.2540*%
%ADD26R,1.1508X0.2508*%
%ADD27R,0.8108X0.7708*%
%ADD28R,0.6008X0.6508*%
%ADD31R,2.0508X2.3508*%
%ADD32C,1.7508*%
%ADD33C,0.5000*%
%ADD34C,1.5508*%
%ADD41R,0.8121X0.7581*%
%ADD46R,1.5508X0.5508*%
G04:AMPARAMS|DCode=47|XSize=0.7008mm|YSize=1.2508mm|CornerRadius=0.0741mm|HoleSize=0mm|Usage=FLASHONLY|Rotation=270.000|XOffset=0mm|YOffset=0mm|HoleType=Round|Shape=RoundedRectangle|*
%AMROUNDEDRECTD47*
21,1,0.7008,1.1025,0,0,270.0*
21,1,0.5525,1.2508,0,0,270.0*
1,1,0.1483,-0.5513,-0.2763*
1,1,0.1483,-0.5513,0.2763*
1,1,0.1483,0.5513,0.2763*
1,1,0.1483,0.5513,-0.2763*
%
%ADD47ROUNDEDRECTD47*%
%ADD48R,1.5508X0.6508*%
%ADD49R,0.6508X0.6008*%
%ADD50R,1.3008X1.6008*%
D25*
X124968Y67056D02*
D03*
X29464Y96012D02*
D03*
X42672Y4064D02*
D03*
D26*
X6952Y79500D02*
D03*
Y74140D02*
D03*
Y68780D02*
D03*
Y63420D02*
D03*
Y58060D02*
D03*
Y20500D02*
D03*
Y25860D02*
D03*
Y31220D02*
D03*
Y36580D02*
D03*
Y41940D02*
D03*
Y52700D02*
D03*
Y47300D02*
D03*
D27*
X107876Y32004D02*
D03*
X117676D02*
D03*
D28*
X25400Y75370D02*
D03*
Y66870D02*
D03*
D31*
X120000Y50000D02*
D03*
D32*
X116000Y86000D02*
D03*
D33*
X108712Y3135D02*
D03*
X49784Y4064D02*
D03*
X18796Y28956D02*
D03*
X14732Y36576D02*
D03*
X100647Y38567D02*
D03*
X52560Y23746D02*
D03*
X74676Y38100D02*
D03*
X63500Y50800D02*
D03*
X76334Y51702D02*
D03*
X74847Y63945D02*
D03*
Y76136D02*
D03*
X56388Y66548D02*
D03*
X26416Y80772D02*
D03*
X14943Y63862D02*
D03*
D34*
X116000Y14000D02*
D03*
D41*
X101092Y5922D02*
D03*
Y18462D02*
D03*
D46*
X8952Y14000D02*
D03*
Y86000D02*
D03*
D47*
X88918Y12344D02*
D03*
Y31344D02*
D03*
X59418D02*
D03*
Y21844D02*
D03*
Y12344D02*
D03*
D48*
X97096Y89662D02*
D03*
Y76962D02*
D03*
Y64262D02*
D03*
Y51562D02*
D03*
X42096Y89662D02*
D03*
Y76962D02*
D03*
Y64262D02*
D03*
Y51562D02*
D03*
D49*
X46414Y35560D02*
D03*
X37914D02*
D03*
D50*
X25278Y18796D02*
D03*
X41778D02*
D03*
M02*
