G04*
G04 #@! TF.GenerationSoftware,Altium Limited,Altium Designer,21.6.1 (37)*
G04*
G04 Layer_Color=32896*
%FSLAX44Y44*%
%MOMM*%
G71*
G04*
G04 #@! TF.SameCoordinates,40B2A5F8-733E-42E0-8A32-B16F46F25534*
G04*
G04*
G04 #@! TF.FilePolarity,Positive*
G04*
G01*
G75*
%ADD10C,0.2500*%
%ADD11C,0.1270*%
%ADD13C,0.2000*%
%ADD14C,0.1524*%
%ADD51C,0.6000*%
D10*
X60668Y3594D02*
G03*
X60668Y3594I-1250J0D01*
G01*
X43346Y43062D02*
G03*
X43346Y43062I-1250J0D01*
G01*
D11*
X127508Y67056D02*
G03*
X127508Y67056I-2540J0D01*
G01*
X32004Y96012D02*
G03*
X32004Y96012I-2540J0D01*
G01*
X45212Y4064D02*
G03*
X45212Y4064I-2540J0D01*
G01*
D13*
X79168Y6344D02*
Y37344D01*
X69168Y6344D02*
Y37344D01*
X79168D01*
X69168Y6344D02*
X79168D01*
X53596Y95612D02*
X85596D01*
X53596Y45612D02*
X85596D01*
Y95612D01*
X53596Y45612D02*
Y95612D01*
D14*
X63710Y42798D02*
Y37508D01*
X62652Y36450D01*
X60536D01*
X59478Y37508D01*
Y42798D01*
X57362Y41740D02*
X56304Y42798D01*
X54188D01*
X53130Y41740D01*
Y40682D01*
X54188Y39624D01*
X55246D01*
X54188D01*
X53130Y38566D01*
Y37508D01*
X54188Y36450D01*
X56304D01*
X57362Y37508D01*
X92666Y42798D02*
Y37508D01*
X91608Y36450D01*
X89492D01*
X88434Y37508D01*
Y42798D01*
X82086Y36450D02*
X86318D01*
X82086Y40682D01*
Y41740D01*
X83144Y42798D01*
X85260D01*
X86318Y41740D01*
X110152Y68072D02*
X109094Y69130D01*
Y71246D01*
X110152Y72304D01*
X111210D01*
X112268Y71246D01*
Y69130D01*
X113326Y68072D01*
X114384D01*
X115442Y69130D01*
Y71246D01*
X114384Y72304D01*
X115442Y65956D02*
Y63840D01*
Y64898D01*
X109094D01*
X110152Y65956D01*
X33230Y39498D02*
Y45846D01*
X30056D01*
X28998Y44788D01*
Y42672D01*
X30056Y41614D01*
X33230D01*
X31114D02*
X28998Y39498D01*
X22650D02*
X26882D01*
X22650Y43730D01*
Y44788D01*
X23708Y45846D01*
X25824D01*
X26882Y44788D01*
X30140Y53722D02*
Y60070D01*
X26966D01*
X25908Y59012D01*
Y56896D01*
X26966Y55838D01*
X30140D01*
X28024D02*
X25908Y53722D01*
X23792D02*
X21676D01*
X22734D01*
Y60070D01*
X23792Y59012D01*
X123868Y31538D02*
X122810Y32596D01*
Y34712D01*
X123868Y35770D01*
X128100D01*
X129158Y34712D01*
Y32596D01*
X128100Y31538D01*
X123868Y29422D02*
X122810Y28364D01*
Y26248D01*
X123868Y25190D01*
X124926D01*
X125984Y26248D01*
Y27306D01*
Y26248D01*
X127042Y25190D01*
X128100D01*
X129158Y26248D01*
Y28364D01*
X128100Y29422D01*
X90466Y6814D02*
X91524Y7872D01*
X93640D01*
X94698Y6814D01*
Y2582D01*
X93640Y1524D01*
X91524D01*
X90466Y2582D01*
X84118Y1524D02*
X88350D01*
X84118Y5756D01*
Y6814D01*
X85176Y7872D01*
X87292D01*
X88350Y6814D01*
X25908Y34120D02*
X26966Y35178D01*
X29082D01*
X30140Y34120D01*
Y29888D01*
X29082Y28830D01*
X26966D01*
X25908Y29888D01*
X23792Y28830D02*
X21676D01*
X22734D01*
Y35178D01*
X23792Y34120D01*
D51*
X66596Y55612D02*
G03*
X66596Y55612I-3000J0D01*
G01*
M02*
