G04*
G04 #@! TF.GenerationSoftware,Altium Limited,Altium Designer,21.6.1 (37)*
G04*
G04 Layer_Color=65535*
%FSLAX44Y44*%
%MOMM*%
G71*
G04*
G04 #@! TF.SameCoordinates,40B2A5F8-733E-42E0-8A32-B16F46F25534*
G04*
G04*
G04 #@! TF.FilePolarity,Positive*
G04*
G01*
G75*
%ADD10C,0.2500*%
%ADD11C,0.1270*%
%ADD12C,0.4000*%
%ADD13C,0.2000*%
%ADD14C,0.1524*%
D10*
X103811Y50546D02*
G03*
X103811Y50546I-1250J0D01*
G01*
X80185Y11836D02*
G03*
X80185Y11836I-1250J0D01*
G01*
D11*
X127508Y67056D02*
G03*
X127508Y67056I-2540J0D01*
G01*
X32004Y96012D02*
G03*
X32004Y96012I-2540J0D01*
G01*
X45212Y4064D02*
G03*
X45212Y4064I-2540J0D01*
G01*
X-107668Y91250D02*
X12032D01*
X-106398Y8750D02*
X13302D01*
D12*
X20368Y59756D02*
X26368D01*
D13*
X71790Y45096D02*
Y94096D01*
X55210D02*
X71790D01*
X55210Y45096D02*
Y94096D01*
Y45096D02*
X71790D01*
X56669Y35836D02*
X58139D01*
X49404Y18265D02*
Y24407D01*
X56669Y6836D02*
X58139D01*
D14*
X24216Y38226D02*
Y31878D01*
X27390D01*
X28448Y32936D01*
Y37168D01*
X27390Y38226D01*
X24216D01*
X30564Y31878D02*
X32680D01*
X31622D01*
Y38226D01*
X30564Y37168D01*
X17570Y83694D02*
Y90042D01*
X20744D01*
X21802Y88984D01*
Y86868D01*
X20744Y85810D01*
X17570D01*
X19686D02*
X21802Y83694D01*
X28150Y90042D02*
X26034Y88984D01*
X23918Y86868D01*
Y84752D01*
X24976Y83694D01*
X27092D01*
X28150Y84752D01*
Y85810D01*
X27092Y86868D01*
X23918D01*
X100416Y76582D02*
Y82930D01*
X103590D01*
X104648Y81872D01*
Y79756D01*
X103590Y78698D01*
X100416D01*
X106764Y76582D02*
X108880D01*
X107822D01*
Y82930D01*
X106764Y81872D01*
X37890Y41274D02*
Y35984D01*
X38948Y34926D01*
X41064D01*
X42122Y35984D01*
Y41274D01*
X48470D02*
X44238D01*
Y38100D01*
X46354Y39158D01*
X47412D01*
X48470Y38100D01*
Y35984D01*
X47412Y34926D01*
X45296D01*
X44238Y35984D01*
X99442Y55670D02*
X104732D01*
X105790Y56728D01*
Y58844D01*
X104732Y59902D01*
X99442D01*
X105790Y65192D02*
X99442D01*
X102616Y62018D01*
Y66250D01*
X16088Y17398D02*
Y12108D01*
X17146Y11050D01*
X19262D01*
X20320Y12108D01*
Y17398D01*
X22436Y11050D02*
X24552D01*
X23494D01*
Y17398D01*
X22436Y16340D01*
X90042Y21126D02*
X83694D01*
Y24300D01*
X84752Y25358D01*
X86868D01*
X87926Y24300D01*
Y21126D01*
Y23242D02*
X90042Y25358D01*
X83694Y31706D02*
Y27474D01*
X86868D01*
X85810Y29590D01*
Y30648D01*
X86868Y31706D01*
X88984D01*
X90042Y30648D01*
Y28532D01*
X88984Y27474D01*
X92246Y2922D02*
Y9270D01*
X95420D01*
X96478Y8212D01*
Y6096D01*
X95420Y5038D01*
X92246D01*
X94362D02*
X96478Y2922D01*
X101768D02*
Y9270D01*
X98594Y6096D01*
X102826D01*
X100374Y19686D02*
Y26034D01*
X103548D01*
X104606Y24976D01*
Y22860D01*
X103548Y21802D01*
X100374D01*
X102490D02*
X104606Y19686D01*
X106722Y24976D02*
X107780Y26034D01*
X109896D01*
X110954Y24976D01*
Y23918D01*
X109896Y22860D01*
X108838D01*
X109896D01*
X110954Y21802D01*
Y20744D01*
X109896Y19686D01*
X107780D01*
X106722Y20744D01*
X40090Y22436D02*
X39032Y23494D01*
X36916D01*
X35858Y22436D01*
Y18204D01*
X36916Y17146D01*
X39032D01*
X40090Y18204D01*
X46438Y23494D02*
X44322Y22436D01*
X42206Y20320D01*
Y18204D01*
X43264Y17146D01*
X45380D01*
X46438Y18204D01*
Y19262D01*
X45380Y20320D01*
X42206D01*
X124376Y28406D02*
X123318Y27348D01*
Y25232D01*
X124376Y24174D01*
X128608D01*
X129666Y25232D01*
Y27348D01*
X128608Y28406D01*
X123318Y34754D02*
Y30522D01*
X126492D01*
X125434Y32638D01*
Y33696D01*
X126492Y34754D01*
X128608D01*
X129666Y33696D01*
Y31580D01*
X128608Y30522D01*
X64982Y41232D02*
X63924Y42290D01*
X61808D01*
X60750Y41232D01*
Y37000D01*
X61808Y35942D01*
X63924D01*
X64982Y37000D01*
X70272Y35942D02*
Y42290D01*
X67098Y39116D01*
X71330D01*
M02*
