G04*
G04 #@! TF.GenerationSoftware,Altium Limited,Altium Designer,21.6.1 (37)*
G04*
G04 Layer_Color=128*
%FSLAX44Y44*%
%MOMM*%
G71*
G04*
G04 #@! TF.SameCoordinates,40B2A5F8-733E-42E0-8A32-B16F46F25534*
G04*
G04*
G04 #@! TF.FilePolarity,Positive*
G04*
G01*
G75*
%ADD52C,0.0508*%
D52*
X108500Y86000D02*
X123500D01*
X116000Y78500D02*
Y93500D01*
X107212Y3135D02*
X110212D01*
X108712Y1635D02*
Y4635D01*
X48284Y4064D02*
X51284D01*
X49784Y2564D02*
Y5564D01*
X17296Y28956D02*
X20296D01*
X18796Y27456D02*
Y30456D01*
X13232Y36576D02*
X16232D01*
X14732Y35076D02*
Y38076D01*
X99147Y38567D02*
X102147D01*
X100647Y37067D02*
Y40067D01*
X51060Y23746D02*
X54060D01*
X52560Y22246D02*
Y25246D01*
X73176Y38100D02*
X76176D01*
X74676Y36600D02*
Y39600D01*
X62000Y50800D02*
X65000D01*
X63500Y49300D02*
Y52300D01*
X74834Y51702D02*
X77834D01*
X76334Y50202D02*
Y53202D01*
X73347Y63945D02*
X76347D01*
X74847Y62445D02*
Y65444D01*
X73347Y76136D02*
X76347D01*
X74847Y74637D02*
Y77636D01*
X54888Y66548D02*
X57888D01*
X56388Y65048D02*
Y68048D01*
X24916Y80772D02*
X27916D01*
X26416Y79272D02*
Y82272D01*
X13443Y63862D02*
X16443D01*
X14943Y62362D02*
Y65362D01*
X108500Y14000D02*
X123500D01*
X116000Y6500D02*
Y21500D01*
M02*
